<svg xmlns="http://www.w3.org/2000/svg" width="11.834" height="9.077" viewBox="0 0 11.834 9.077">
  <defs>
    <style>
      .cls-1 {
        fill: #010a60;
      }
    </style>
  </defs>
  <path id="Icon_zocial-persona" data-name="Icon zocial-persona" class="cls-1" d="M4.852,7.1A22.157,22.157,0,0,1,2.4,7.021s.1-1.465.766-1.728S4,5.067,4.231,4.927l.017-.01V4.523a1.816,1.816,0,0,1-.5-.827.654.654,0,0,1-.191-.447.608.608,0,0,1,.093-.318A1.3,1.3,0,0,1,4.853,1.559,1.3,1.3,0,0,1,6.061,2.931a.606.606,0,0,1,.093.318.654.654,0,0,1-.191.447,1.812,1.812,0,0,1-.5.827v.394l.017.01c.233.14.4.1,1.067.367s.766,1.728.766,1.728A22.273,22.273,0,0,1,4.852,7.1M7.937-.035H.426A.432.432,0,0,0-.006.4V8.611a.432.432,0,0,0,.432.432H7.937L11.827,4.5,7.937-.035Z" transform="translate(0.006 0.035)"/>
</svg>
