<svg xmlns="http://www.w3.org/2000/svg" width="264" height="205.231" viewBox="0 0 264 205.231">
  <defs>
    <style>
      .cls-1, .cls-3 {
        fill: #414141;
      }

      .cls-1, .cls-10, .cls-8, .cls-9 {
        font-size: 13px;
      }

      .cls-1 {
        font-family: Arial;
      }

      .cls-1, .cls-10, .cls-3, .cls-8, .cls-9 {
        letter-spacing: 0.025em;
      }

      .cls-2 {
        fill: #fff;
      }

      .cls-3 {
        font-size: 16px;
      }

      .cls-10, .cls-3, .cls-8, .cls-9 {
        font-family: Arial;
        font-weight: 800;
      }

      .cls-4 {
        fill: none;
      }

      .cls-5, .cls-8 {
        fill: #7b3ff2;
      }

      .cls-6, .cls-9 {
        fill: #42db9c;
      }

      .cls-10, .cls-7 {
        fill: #ffa52e;
      }
    </style>
  </defs>
  <g id="Group_295" data-name="Group 295" transform="translate(-370 -532.769)">
    <text id="Office_Ops" data-name="Office &amp; Ops" class="cls-1" transform="translate(482 735)"><tspan x="0" y="0">Office &amp; Ops</tspan></text>
    <g id="Group_294" data-name="Group 294">
      <rect id="Rectangle_1083" data-name="Rectangle 1083" class="cls-2" width="47" height="68" transform="translate(461 582)"/>
      <text id="Salary" class="cls-1" transform="translate(389 735)"><tspan x="0" y="0">Salary</tspan></text>
      <text id="TTH" class="cls-1" transform="translate(607 735)"><tspan x="0" y="0">TTH</tspan></text>
      <g id="Group_273" data-name="Group 273" transform="translate(1)">
        <text id="_250_000" data-name="$250,000" class="cls-3" transform="translate(463 626)"><tspan x="0" y="0">$250,000</tspan></text>
        <g id="Group_142" data-name="Group 142" transform="translate(410.943 532.769)">
          <g id="Group_43" data-name="Group 43" transform="translate(26.14 26.33)">
            <g id="Path_210" data-name="Path 210" transform="translate(0 0)">
              <path id="Path_217" data-name="Path 217" class="cls-4" d="M681.2-519.763a63.451,63.451,0,0,1,63.451,63.451A63.451,63.451,0,0,1,681.2-392.861a63.451,63.451,0,0,1-63.451-63.451h0A63.451,63.451,0,0,1,681.2-519.763Z" transform="translate(-617.749 519.763)"/>
              <path id="Path_218" data-name="Path 218" class="cls-5" d="M681.2-504.4a48.143,48.143,0,0,0-48.089,48.089A48.143,48.143,0,0,0,681.2-408.223a48.143,48.143,0,0,0,48.089-48.089,48.236,48.236,0,0,0-23.549-41.344A47.527,47.527,0,0,0,681.2-504.4m0-15.362a63.451,63.451,0,0,1,63.451,63.451A63.451,63.451,0,0,1,681.2-392.861a63.451,63.451,0,0,1-63.451-63.451A63.451,63.451,0,0,1,681.2-519.763Z" transform="translate(-617.749 519.763)"/>
            </g>
          </g>
          <g id="Ellipse_57" data-name="Ellipse 57" transform="translate(89.9 179.799) rotate(-135)">
            <path id="Path_211" data-name="Path 211" class="cls-4" d="M61.942,111.743v15.373c.54.016,1.081.021,1.626.021a64.257,64.257,0,0,0,6.5-.328,63.093,63.093,0,0,0,6.3-.964.007.007,0,0,1,.011,0c1.679-.344,3.337-.758,4.969-1.229q1.573-.461,3.115-1c.62-.217,1.24-.44,1.849-.678.281-.106.562-.217.842-.328a63.719,63.719,0,0,0,35.911-36.621c.111-.281.217-.567.313-.848s.207-.572.3-.858c.2-.572.392-1.15.572-1.727.148-.471.291-.948.424-1.425s.27-.954.4-1.436c.275-1.065.53-2.14.752-3.221q.389-1.891.667-3.825c.122-.858.228-1.716.318-2.585a64.482,64.482,0,0,0,0-13c-.09-.869-.2-1.727-.318-2.585q-.278-1.931-.667-3.825c-.222-1.081-.477-2.156-.752-3.221-.127-.482-.26-.959-.4-1.436s-.275-.954-.424-1.425c-.09-.291-.185-.577-.281-.869s-.185-.572-.291-.858-.2-.572-.3-.858-.2-.567-.313-.848A63.7,63.7,0,0,0,87.153,4.524c-.281-.111-.562-.222-.842-.328-.609-.238-1.229-.461-1.849-.678q-1.542-.532-3.115-1c-1.632-.471-3.29-.885-4.969-1.229a.007.007,0,0,1-.011,0,63.1,63.1,0,0,0-6.3-.964,64.481,64.481,0,0,0-13,0,63.1,63.1,0,0,0-6.3.964.007.007,0,0,1-.011,0c-1.679.344-3.337.758-4.969,1.229q-1.573.461-3.115,1c-.62.217-1.24.44-1.849.678-.281.106-.562.217-.842.328A63.7,63.7,0,0,0,4.074,41.145c-.111.281-.217.562-.313.848s-.207.572-.3.858-.2.572-.291.858-.191.577-.281.869c-.148.471-.291.948-.424,1.425s-.27.954-.4,1.436c-.275,1.065-.53,2.14-.752,3.221Q.924,52.55.646,54.484C.524,55.342.418,56.2.328,57.069A64.257,64.257,0,0,0,0,63.569H15.362" transform="translate(0 0)"/>
          </g>
          <g id="Ellipse_59" data-name="Ellipse 59" transform="translate(28.836 107.667)">
            <path id="Path_215" data-name="Path 215" class="cls-4" d="M459.436-366.22a63.607,63.607,0,0,1-37.283,41.261c-.577.233-1.16.456-1.748.673q-1.875.691-3.809,1.266c-.339.1-.678.2-1.017.291-.678.191-1.361.366-2.05.535-.71.175-1.43.334-2.151.482a62.464,62.464,0,0,1-6.267.964,63.821,63.821,0,0,1-6.473.328,63.82,63.82,0,0,1-6.473-.328,62.464,62.464,0,0,1-6.267-.964c-.72-.148-1.441-.307-2.151-.482-.689-.17-1.372-.344-2.05-.535-.339-.1-.678-.191-1.017-.291q-1.931-.572-3.809-1.266c-.588-.217-1.171-.44-1.748-.673A63.607,63.607,0,0,1,337.84-366.22h16.236a48.016,48.016,0,0,0,44.562,30.439A48.016,48.016,0,0,0,443.2-366.22Z" transform="translate(-337.84 366.22)"/>
            <path id="Path_216" data-name="Path 216" class="cls-6" d="M443.335-366.77c-7.046,17.815-24.12,30.726-44.314,30.726a48.284,48.284,0,0,1-44.931-30.175H337.87a63.8,63.8,0,0,0,35.6,40.562q.826.358,1.669.7c.577.233,1.16.456,1.748.673q1.875.691,3.809,1.266c.339.1.678.2,1.017.291.678.191,1.361.366,2.05.535.71.175,1.43.334,2.151.482a62.464,62.464,0,0,0,6.267.964,63.821,63.821,0,0,0,6.473.328,63.821,63.821,0,0,0,6.473-.328,62.462,62.462,0,0,0,6.267-.964c.72-.148,1.441-.307,2.151-.482.689-.17,1.372-.344,2.05-.535.339-.1.678-.191,1.017-.291q1.931-.572,3.809-1.266c.588-.217,1.171-.44,1.748-.673q.842-.342,1.669-.7a63.8,63.8,0,0,0,35.6-40.562Z" transform="translate(-337.854 366.22)"/>
          </g>
          <g id="Ellipse_59-2" data-name="Ellipse 59" transform="translate(139.984 50.568) rotate(158)">
            <path id="Path_215-2" data-name="Path 215" class="cls-7" d="M121.6,0A63.607,63.607,0,0,1,84.313,41.261c-.577.233-1.16.456-1.748.673q-1.875.691-3.809,1.266c-.339.1-.678.2-1.017.291-.678.191-1.361.366-2.05.535-.71.175-1.43.334-2.151.482a62.463,62.463,0,0,1-6.267.964A63.811,63.811,0,0,1,60.8,45.8a63.811,63.811,0,0,1-6.473-.328,62.463,62.463,0,0,1-6.267-.964c-.72-.148-1.441-.307-2.151-.482-.689-.17-1.372-.344-2.05-.535-.339-.1-.678-.191-1.017-.291q-1.931-.572-3.809-1.266c-.588-.217-1.171-.44-1.748-.673C19.335,34.052,6.723,21.4,1.277,2.574L16.447-.5C23.492,17.319,40.6,30.439,60.8,30.439s37.15-9.929,44.2-27.744Z"/>
            <path id="Path_216-2" data-name="Path 216" class="cls-7" d="M106.056.183C99.011,18,80.976,30.439,60.782,30.439A48.016,48.016,0,0,1,16.221,0L1.235,2.525C6.522,20.743,18.488,33.077,35.6,40.562q.826.358,1.669.7c.577.233,1.16.456,1.748.673q1.875.691,3.809,1.266c.339.1.678.2,1.017.291.678.191,1.361.366,2.05.535.71.175,1.43.334,2.151.482a62.464,62.464,0,0,0,6.267.964,63.811,63.811,0,0,0,6.473.328,63.811,63.811,0,0,0,6.473-.328,62.463,62.463,0,0,0,6.267-.964c.72-.148,1.441-.307,2.151-.482.689-.17,1.372-.344,2.05-.535.339-.1.678-.191,1.017-.291q1.931-.572,3.809-1.266c.588-.217,1.171-.44,1.748-.673q.842-.342,1.669-.7A63.8,63.8,0,0,0,121.564,0Z" transform="translate(0.016)"/>
          </g>
          <g id="Ellipse_58" data-name="Ellipse 58" transform="translate(8.956 50.207) rotate(-19)">
            <path id="Path_213" data-name="Path 213" class="cls-7" d="M15.362,63.569a48.263,48.263,0,0,0,48.206,48.206v15.362a64.257,64.257,0,0,1-6.5-.328,63.094,63.094,0,0,1-6.3-.964.007.007,0,0,0-.011,0c-1.679-.344-3.337-.758-4.969-1.229-.7-.207-1.393-.419-2.082-.646-.334-.111-.662-.222-.991-.334-.021-.011-.042-.016-.064-.027-.678-.233-1.351-.477-2.013-.742A63.678,63.678,0,0,1,3.676,84.9q-.556-1.534-1.017-3.1c-.2-.657-.381-1.314-.556-1.976-.032-.122-.064-.238-.1-.355-.064-.249-.127-.5-.191-.742-.021-.1-.042-.207-.069-.307-.069-.286-.138-.572-.2-.863-.079-.355-.159-.715-.233-1.075-.064-.313-.127-.63-.185-.948s-.122-.636-.175-.954-.111-.641-.159-.959-.1-.641-.148-.964C.524,71.8.418,70.937.328,70.068a64.482,64.482,0,0,1,0-13c.09-.869.2-1.727.318-2.585.048-.323.1-.641.148-.964s.1-.641.159-.959.111-.636.175-.954.122-.636.185-.948c.074-.36.154-.72.233-1.075.064-.291.132-.577.2-.863.026-.1.048-.207.069-.307.074-.27.143-.546.212-.821.021-.069.037-.138.053-.212.185-.683.376-1.367.577-2.04A63.658,63.658,0,0,1,40.642,4.27c.662-.265,1.335-.509,2.013-.742.021-.011.042-.016.064-.027.328-.111.657-.222.991-.334.689-.228,1.383-.44,2.082-.646,1.632-.471,3.29-.885,4.969-1.229a.007.007,0,0,0,.011,0,63.1,63.1,0,0,1,6.3-.964A64.265,64.265,0,0,1,63.569,0V15.362A48.259,48.259,0,0,0,15.362,63.569Z" transform="translate(0 0)"/>
            <path id="Path_214" data-name="Path 214" class="cls-7" d="M63.569,15.362V0a64.265,64.265,0,0,0-6.5.328,63.1,63.1,0,0,0-6.3.964.007.007,0,0,1-.011,0c-1.679.344-3.337.758-4.969,1.229-.7.207-1.393.418-2.082.646-.334.111-.662.223-.991.334-.021.011-.042.016-.064.027-.678.233-1.346.482-2.013.742A63.908,63.908,0,0,0,2.659,45.34c-.2.673-.392,1.356-.577,2.04-.016.074-.032.143-.053.212-.069.275-.138.551-.212.821-.021.1-.042.207-.069.307-.069.286-.138.572-.2.863-.079.355-.159.715-.233,1.075-.064.313-.127.63-.185.948s-.122.636-.175.954-.111.641-.159.959-.1.641-.148.964C.524,55.342.418,56.2.328,57.069a64.482,64.482,0,0,0,0,13c.09.869.2,1.727.318,2.585.048.323.1.641.148.964s.1.641.159.959.111.636.175.954.122.636.185.948c.074.36.154.72.233,1.075.064.291.132.577.2.863.026.1.048.207.069.307.064.244.127.493.191.742.032.117.064.233.1.355.175.662.36,1.319.556,1.976q.469,1.573,1.017,3.1A63.819,63.819,0,0,0,40.32,123.1c.667.26,1.319.454,2,.688.021.011.884.308,1.217.419.689.228,1.467.462,2.166.668,1.632.471,3.292.881,4.972,1.225h0a63.89,63.89,0,0,0,6.34.945c2.135.217,4.553.27,6.747.27l-.19-15.539a48.206,48.206,0,1,1,0-96.412Z"/>
          </g>
        </g>
        <text id="_58_000" data-name="$58,000" class="cls-8" transform="translate(575 625)"><tspan x="0" y="0">$58,000</tspan></text>
        <text id="_17_100" data-name="$17,100" class="cls-9" transform="translate(565 670)"><tspan x="0" y="0">$17,100</tspan></text>
        <text id="_174_900" data-name="$174,900" class="cls-10" transform="translate(369 625)"><tspan x="0" y="0">$174,900</tspan></text>
      </g>
      <path id="Path_272" data-name="Path 272" class="cls-6" d="M0,0H9V9H0Z" transform="translate(593.79 726)"/>
      <path id="Path_273" data-name="Path 273" class="cls-7" d="M0,0H9V9H0Z" transform="translate(373.79 726)"/>
      <path id="Path_274" data-name="Path 274" class="cls-5" d="M0,0H9V9H0Z" transform="translate(466.79 726)"/>
    </g>
  </g>
</svg>
